<svg xmlns="http://www.w3.org/2000/svg" width="20.81" height="26.586"><path d="M14.071 5.816a7.517 7.517 0 1 0 6.738 7.477 7.6 7.6 0 0 0-6.738-7.477Zm0 13.384V7.385a5.959 5.959 0 0 1 0 11.816ZM13.293 4.65a.779.779 0 0 0 .779-.779V.779a.779.779 0 1 0-1.558 0v3.092a.779.779 0 0 0 .779.779ZM13.293 21.936a.779.779 0 0 0-.779.779v3.092a.779.779 0 0 0 1.558 0v-3.092a.779.779 0 0 0-.779-.779ZM4.65 13.293a.779.779 0 0 0-.779-.779H.779a.779.779 0 1 0 0 1.558h3.092a.779.779 0 0 0 .779-.779ZM5.893 6.995a.779.779 0 0 0 1.1-1.1L4.745 3.647a.779.779 0 0 0-1.1 1.1ZM5.893 19.592 3.645 21.84a.779.779 0 1 0 1.1 1.1l2.248-2.248a.779.779 0 0 0-1.1-1.1Zm0 0" fill="#fff"/></svg>