<svg xmlns="http://www.w3.org/2000/svg" width="18.846" height="23.386"><g stroke="#000"><path d="M9.427 6.738a3.119 3.119 0 1 0-3.119-3.119 3.119 3.119 0 0 0 3.119 3.119ZM16.668 8.259h-.008l-5.458.49q-.279.025-.559.025h-2.43q-.279 0-.558-.025l-5.467-.49a1.56 1.56 0 1 0-.244 3.11l4.412.4a.52.52 0 0 1 .473.517v1.2a2.074 2.074 0 0 1-.143.76l-2.5 6.371a1.56 1.56 0 1 0 2.853 1.263l2.384-5.829 2.406 5.845a1.56 1.56 0 0 0 2.854-1.256l-2.515-6.397a2.078 2.078 0 0 1-.143-.758v-1.2a.52.52 0 0 1 .473-.517l4.4-.4a1.56 1.56 0 1 0-.23-3.109Z"/></g></svg>